<svg width="200" height="85" viewBox="0 0 200 85" fill="none" xmlns="http://www.w3.org/2000/svg">
<g clip-path="url(#clip0_320_2)">
<path d="M0.960025 61.1413L1.22452 57.8877L3.51075 57.6232C5.62307 57.4456 6.5035 57.0072 6.5035 55.9529V11.3478C6.5035 10.029 6.15205 9.23549 5.27162 8.79709L0.0795898 6.51086L0.344081 4.13404L15.3006 -0.177551V56.0435C15.3006 56.9239 15.8296 57.4529 18.6448 57.6268L20.8441 57.8913L21.1086 61.1449H0.960025V61.1413Z" fill="#1C1F28"/>
<path d="M40.7281 62.4637C30.3477 62.4637 22.6919 54.105 22.6919 42.6666C22.6919 29.6449 31.8404 20.1449 43.6303 20.1449C52.076 20.1449 57.9709 25.3369 57.9709 33.605C57.9709 35.0145 57.7933 36.9492 57.4419 38.4456L31.8404 38.0942V39.0616C31.9274 48.9166 37.297 55.5145 44.8622 55.5145C48.7318 55.5145 52.7788 53.9311 55.7716 50.413L57.6194 51.4674C54.5397 58.5072 48.4709 62.4637 40.7281 62.4637ZM41.8731 23.7536C37.297 23.7536 32.8984 27.7137 32.018 35.192C32.018 35.192 48.9999 35.105 48.7354 35.105C49.0868 27.9782 46.2716 23.7572 41.8731 23.7572V23.7536Z" fill="#1C1F28"/>
<path d="M75.7647 49.7464L63.819 20.0399C62.9821 18.1413 62.3081 17.6341 60.2031 17.3334L58.1813 16.6631L57.8335 13.3732H76.8625L76.6016 16.5979L74.1233 17.1776C73.3697 17.2971 72.8951 17.5435 72.656 17.9348C72.3951 18.366 72.4023 18.9892 72.6886 19.8406L80.656 40.8298L87.5364 21.7935C88.2864 19.7971 88.4422 18.7283 88.0835 18.1015C87.8371 17.674 87.3081 17.4058 86.4241 17.2573L83.8552 16.5942L83.5944 13.3732H98.5473L98.2864 16.5979L96.04 17.0979C93.9205 17.4022 93.1741 18.5254 91.7067 22.2319L81.0944 49.7464H75.7574H75.7647Z" fill="#1C1F28"/>
<path d="M98.1197 16.4456L96.0037 16.9167C93.8117 17.2283 93.0291 18.4058 91.54 22.163L80.9711 49.5652H75.8805L63.982 19.971C63.1197 18.0145 62.4168 17.4674 60.2247 17.1522L58.3443 16.5254L58.0327 13.5507H76.6668L76.4313 16.4493L74.0834 16.9964C72.5979 17.2319 71.8914 18.0145 72.5182 19.8949L80.6595 41.3478L87.7066 21.8551C88.8805 18.7246 88.8044 17.471 86.453 17.0797L84.0255 16.4529L83.79 13.5543H98.3516L98.116 16.4529L98.1197 16.4456Z" fill="#1C1F28"/>
<path d="M103.011 61.1413L103.275 57.8877L105.475 57.6232C107.587 57.4456 108.467 57.0072 108.467 55.9529V34.308C108.467 28.7645 107.851 27.9746 104.685 27.0942L102.837 26.6558L102.924 24.1051L117.264 20.1449V56.0398C117.264 56.9203 117.793 57.4493 120.609 57.6232L122.808 57.8877L123.072 61.1413H103.014H103.011ZM112.072 13.3659C108.554 13.3659 106.529 10.6377 106.529 7.471C106.529 4.30433 108.554 1.66302 112.072 1.66302C115.591 1.66302 117.616 4.39129 117.616 7.471C117.616 10.5507 115.594 13.3659 112.072 13.3659Z" fill="#1C1F28"/>
<path d="M140.185 62.4637C133.851 62.4637 129.188 58.6811 129.362 49.7934L129.891 26.9166L122.942 26.3877L123.029 23.4855L134.993 13.105L138.511 13.634L138.424 21.7282H152.764L152.148 26.5688H138.424L137.895 47.3333C137.717 53.9311 140.797 56.0434 145.286 56.0434C147.572 56.0434 150.388 55.25 152.677 54.0217L153.029 56.3985C149.862 60.0072 144.935 62.471 140.185 62.471V62.4637Z" fill="#1C1F28"/>
<path d="M199.58 24.7174L197.116 25.2464C194.739 25.5978 193.772 26.9166 192.101 31.1413L181.721 58.5036L176.971 72.6703C174.42 80.3261 171.605 84.1087 166.413 84.1087C162.63 84.1087 160.08 81.9964 160.08 78.9166C160.08 76.279 161.576 73.9891 164.743 73.9891C167.558 73.9891 169.228 75.5724 170.199 77.2427C171.518 76.5398 172.398 74.9565 173.808 71.1703L176.801 62.6377V62.2862L161.141 28.6775C160.087 26.5652 159.471 25.9493 156.917 25.5108L154.982 24.8079L154.63 21.4637H175.217L174.953 24.7174L172.576 25.3333C170.815 25.5108 169.935 26.4782 170.906 28.5869L180.761 51.1993L187.975 30.7862C189.206 27.1775 188.855 25.8587 186.04 25.4203L183.398 24.7174L183.134 21.4637H199.851L199.587 24.7174H199.58Z" fill="#1C1F28"/>
<path d="M92.2428 61.5652H64.3877L65.0326 57.2138C65.1884 57.2138 76.308 54.0942 91.721 56.8515C91.8297 57.6957 92.2464 61.5616 92.2464 61.5616L92.2428 61.5652Z" fill="#1C1F28"/>
</g>
<defs>
<clipPath id="clip0_320_2">
<rect width="200" height="84.058" fill="white"/>
</clipPath>
</defs>
</svg>
